HIERARCHY
ROOT Hip
{
	OFFSET	0.0000	0.0000	0.0000
	CHANNELS 6 Xposition Yposition Zposition Xrotation Yrotation Zrotation
	JOINT LowerSpine
	{
		OFFSET	0.0000	8.3453	-5.1292
		CHANNELS 3 Xrotation Yrotation Zrotation
		JOINT MiddleSpine
		{
			OFFSET	10.8569	0.0000	0.0000
			CHANNELS 3 Xrotation Yrotation Zrotation
			JOINT Chest
			{
				OFFSET	15.2984	0.0000	0.0000
				CHANNELS 3 Xrotation Yrotation Zrotation
				JOINT Neck
				{
					OFFSET	25.6618	-0.5986	0.0000
					CHANNELS 3 Xrotation Yrotation Zrotation
					JOINT Head
					{
						OFFSET	8.8829	0.0000	0.0000
						CHANNELS 3 Xrotation Yrotation Zrotation
						End Site
						{
							OFFSET	19.7399	0.0000	0.0000
						}
					}
				}
				JOINT RClavicle
				{
					OFFSET	23.6878	0.0000	3.1584
					CHANNELS 3 Xrotation Yrotation Zrotation
					JOINT RShoulder
					{
						OFFSET	-15.5945	-3.9480	0.9870
						CHANNELS 3 Xrotation Yrotation Zrotation
						JOINT RForearm
						{
							OFFSET	-31.3370	0.0000	0.1974
							CHANNELS 3 Xrotation Yrotation Zrotation
							JOINT RHand
							{
								OFFSET	-26.4021	0.0000	0.0000
								CHANNELS 3 Xrotation Yrotation Zrotation
								End Site
								{
									OFFSET	-15.7919	-0.9870	0.0000
								}
							}
						}
					}
				}
				JOINT LClavicle
				{
					OFFSET	23.6878	0.0000	-3.1584
					CHANNELS 3 Xrotation Yrotation Zrotation
					JOINT LShoulder
					{
						OFFSET	-15.5945	-3.9480	-0.9870
						CHANNELS 3 Xrotation Yrotation Zrotation
						JOINT LForearm
						{
							OFFSET	-31.3370	0.0000	-0.1974
							CHANNELS 3 Xrotation Yrotation Zrotation
							JOINT LHand
							{
								OFFSET	-26.4021	0.0000	0.0000
								CHANNELS 3 Xrotation Yrotation Zrotation
								End Site
								{
									OFFSET	-15.7919	-0.9870	0.0000
								}
							}
						}
					}
				}
			}
		}
	}
	JOINT RThigh
	{
		OFFSET	-8.8829	0.4481	0.0000
		CHANNELS 3 Xrotation Yrotation Zrotation
		JOINT RShin
		{
			OFFSET	43.1316	0.0000	-0.4935
			CHANNELS 3 Xrotation Yrotation Zrotation
			JOINT RFoot
			{
				OFFSET	0.0000	-44.7256	-0.4047
				CHANNELS 3 Xrotation Yrotation Zrotation
				JOINT RToe
				{
					OFFSET	0.0000	-3.9332	12.1953
					CHANNELS 3 Xrotation Yrotation Zrotation
					End Site
					{
						OFFSET	6.7725	0.0000	0.0000
					}
				}
			}
		}
	}
	JOINT LThigh
	{
		OFFSET	8.8829	0.4481	0.0000
		CHANNELS 3 Xrotation Yrotation Zrotation
		JOINT LShin
		{
			OFFSET	43.1316	0.0000	0.4935
			CHANNELS 3 Xrotation Yrotation Zrotation
			JOINT LFoot
			{
				OFFSET	0.0000	-44.7256	0.4047
				CHANNELS 3 Xrotation Yrotation Zrotation
				JOINT LToe
				{
					OFFSET	0.0000	-3.9332	-12.1953
					CHANNELS 3 Xrotation Yrotation Zrotation
					End Site
					{
						OFFSET	6.7725	0.0000	0.0000
					}
				}
			}
		}
	}
}
MOTION
Frames:	16
Frame Time: 0.0169491000
	0.0000	93.1363	0.0000	0.000000	0.000000	0.000000	-89.999990	-90.000000	0.000000	0.000000	0.000000	0.000000	0.000000	0.000000	0.000000	0.000000	0.000000	0.000000	0.000000	0.000000	0.000000	89.999990	0.000003	-89.999990	0.129889	-2.857029	4.156837	0.255388	4.965908	-5.884634	0.000000	0.000000	0.000000	-89.999990	-0.000003	-89.999990	-0.129889	2.857029	4.156894	-0.255388	-4.965908	-5.884634	0.000000	0.000000	0.000000	-89.999990	90.000000	0.000000	89.999990	-0.000003	89.999990	0.000000	0.000000	0.000000	180.000000	90.000000	0.000000	-89.999990	90.000000	0.000000	-90.000000	-0.000003	89.999990	0.000000	0.000000	0.000000	180.000000	-90.000000	0.000000
	15.9298	94.2486	2.1597	-3.553166	1.437237	0.706573	-89.999990	-90.000000	0.000000	-0.089727	-0.010396	0.217760	-0.299893	-0.037120	0.725414	0.000000	0.000000	0.000000	0.000000	0.000000	0.000000	89.996480	-0.096404	-88.704230	-14.079000	-0.505953	-5.441686	1.506879	16.676780	-6.120839	0.000000	0.000000	0.000000	-90.003510	-0.063578	-90.855200	-3.828126	3.213810	-8.062082	-1.237955	-14.245240	-6.049133	0.000000	0.000000	0.000000	-126.481300	88.037840	44.826630	89.959540	4.509613	89.996980	0.092938	-0.253591	-0.087084	170.674100	90.000000	0.000000	-164.556400	88.047000	80.471260	-89.930010	-7.797903	89.996790	-0.008430	0.491680	-0.125898	190.129200	-90.000000	0.000000
	15.8660	93.8651	1.8111	-3.138032	2.981152	0.786843	-89.999990	-90.000000	0.000000	0.000302	-0.025682	0.141788	-0.000390	-0.087052	0.471648	0.000000	0.000000	0.000000	0.000000	0.000000	0.000000	89.998020	-0.046802	-89.370800	-17.579160	-4.127112	-2.186869	2.160557	22.323590	-6.339310	0.000000	0.000000	0.000000	-90.004070	-0.072334	-90.973040	5.255226	4.188242	-5.319069	-2.242365	-23.001420	-6.370832	0.000000	0.000000	0.000000	-107.745400	88.440750	25.807800	89.968230	3.540543	89.997360	-1.850176	0.081729	0.025124	173.761000	90.000000	0.000000	-145.192700	89.213410	60.779400	-89.941080	-6.567679	89.996660	1.568574	-0.130689	0.010144	187.400400	-90.000000	0.000000
	15.8332	93.4538	1.3688	-2.631701	3.775936	0.956835	-89.999990	-90.000000	0.000000	0.075018	-0.030241	0.065937	0.248232	-0.102019	0.218646	0.000000	0.000000	0.000000	0.000000	0.000000	0.000000	89.999600	-0.008594	-89.884350	-18.208130	-7.480875	0.960267	2.797807	27.420620	-6.607602	0.000000	0.000000	0.000000	-90.004200	-0.074379	-91.000610	9.012690	5.545865	-2.855276	-3.189567	-30.340100	-6.796877	0.000000	0.000000	0.000000	-94.006890	88.621710	11.641020	89.974930	2.792832	89.997760	-3.711638	0.207866	0.075776	176.327300	90.000000	0.000000	-56.998990	89.528980	-28.125820	-89.944190	-6.222982	89.996670	3.429069	-0.763564	0.228201	184.879700	-90.000000	0.000000
	15.8078	93.1855	1.0743	-2.373956	3.970726	1.160343	-89.999990	-90.000000	0.000000	0.129930	-0.019717	-0.012183	0.431422	-0.067213	-0.041789	0.000000	0.000000	0.000000	0.000000	0.000000	0.000000	90.000720	0.014629	-90.196630	-15.166620	-10.183770	4.634369	3.522437	32.690770	-6.970914	0.000000	0.000000	0.000000	-90.003710	-0.066806	-90.898700	7.935596	7.387844	0.343556	-4.152920	-36.820630	-7.330575	0.000000	0.000000	0.000000	-89.691150	88.721730	7.172548	89.979720	2.258482	89.998090	-4.579395	0.084600	0.037356	177.458400	90.000000	0.000000	-25.801850	89.257740	-59.904430	-89.941520	-6.519759	89.996660	4.714314	-1.131618	0.426643	183.487100	-90.000000	0.000000
	15.7697	93.1007	0.9775	-2.369124	3.906779	1.290341	-89.999990	-90.000000	0.000000	0.169802	0.003028	-0.095358	0.565229	0.007772	-0.319566	0.000000	0.000000	0.000000	0.000000	0.000000	0.000000	90.001320	0.026046	-90.350140	-10.131120	-12.734790	9.263936	4.622408	39.631520	-7.621167	0.000000	0.000000	0.000000	-90.002740	-0.051057	-90.686780	7.046422	9.997216	4.675876	-5.402618	-43.838570	-8.140898	0.000000	0.000000	0.000000	-89.057040	88.790280	6.551659	89.981280	2.085177	89.998210	-4.647112	-0.050508	-0.006165	177.517100	90.000000	0.000000	-15.936660	89.189800	-69.895970	-89.940390	-6.646039	89.996650	5.023405	-0.972886	0.398338	183.268700	-90.000000	0.000000
	15.7422	93.1028	0.9122	-2.356551	3.696759	1.356818	-89.999990	-90.000000	0.000000	0.196298	0.030680	-0.177711	0.654765	0.097998	-0.595390	0.000000	0.000000	0.000000	0.000000	0.000000	0.000000	90.001420	0.027818	-90.373980	-5.846178	-15.820630	14.927720	6.329915	48.162850	-8.808429	0.000000	0.000000	0.000000	-90.001590	-0.031171	-90.419200	7.411129	12.968570	9.569465	-7.048633	-51.076000	-9.356098	0.000000	0.000000	0.000000	-89.382870	88.867250	6.650935	89.978560	2.387956	89.998010	-4.761705	-0.051326	-0.002674	177.471400	90.000000	0.000000	-7.210108	89.182720	-78.652020	-89.940530	-6.631125	89.996650	4.873442	-0.475994	0.182500	183.510500	-90.000000	0.000000
	15.7164	93.1137	0.7976	-2.288701	3.612749	1.362471	-89.999990	-90.000000	0.000000	0.211475	0.053757	-0.251083	0.705403	0.169793	-0.840510	0.000000	0.000000	0.000000	0.000000	0.000000	0.000000	90.001220	0.024039	-90.323170	-2.332801	-19.269300	21.409280	8.701852	56.597450	-10.692390	0.000000	0.000000	0.000000	-90.000580	-0.012007	-90.161480	6.370139	15.228860	14.922610	-8.972855	-57.371090	-10.919640	0.000000	0.000000	0.000000	-89.759610	88.886890	6.692392	89.975250	2.757647	89.997780	-4.964227	-0.020383	0.009647	177.560200	90.000000	0.000000	-4.360632	89.152190	-81.730460	-89.938720	-6.832634	89.996650	4.812593	-0.258171	0.077107	183.657100	-90.000000	0.000000
	15.6720	93.1168	0.6890	-2.265269	3.763821	1.318940	-89.999990	-90.000000	0.000000	0.216761	0.061687	-0.308197	0.721941	0.190736	-1.028649	0.000000	0.000000	0.000000	0.000000	0.000000	0.000000	90.000870	0.017408	-90.233940	2.289750	-21.957080	28.262950	11.325860	62.913170	-12.962770	0.000000	0.000000	0.000000	-89.999860	0.002946	-89.960390	2.598348	15.601330	20.859220	-10.836610	-61.911510	-12.529130	0.000000	0.000000	0.000000	-89.344710	88.797930	6.107816	89.973790	2.921077	89.997680	-5.060716	-0.134855	-0.040781	177.638900	90.000000	0.000000	-9.351678	89.109330	-77.011960	-89.936040	-7.131347	89.996670	4.901025	-0.530834	0.197314	183.595400	-90.000000	0.000000
	15.6322	93.1083	0.6217	-2.276098	3.912438	1.305032	-89.999990	-90.000000	0.000000	0.212350	0.044509	-0.346094	0.708517	0.139183	-1.151170	0.000000	0.000000	0.000000	0.000000	0.000000	0.000000	90.000500	0.010123	-90.135960	7.690140	-22.588320	35.053200	12.836350	65.615730	-14.323820	0.000000	0.000000	0.000000	-89.999380	0.013137	-89.823380	-3.249574	13.699580	26.712640	-12.063080	-64.300320	-13.623190	0.000000	0.000000	0.000000	-88.758740	88.708610	5.456549	89.973010	3.007700	89.997640	-5.215352	-0.478648	-0.194218	177.764300	90.000000	0.000000	-12.939060	89.066360	-73.564970	-89.934750	-7.272688	89.996690	5.028743	-0.914370	0.384342	183.357400	-90.000000	0.000000
	15.6057	93.0921	0.5636	-2.249196	3.899613	1.315656	-89.999990	-90.000000	0.000000	0.199998	0.000997	-0.368988	0.670371	0.007995	-1.225615	0.000000	0.000000	0.000000	0.000000	0.000000	0.000000	90.000140	0.002911	-90.038920	11.674690	-21.183600	40.766860	12.103100	64.371730	-13.659270	0.000000	0.000000	0.000000	-89.999050	0.020737	-89.721240	-9.619596	9.433456	31.870940	-11.973530	-64.139120	-13.542560	0.000000	0.000000	0.000000	-88.436650	88.676470	4.992916	89.971710	3.152645	89.997570	-5.376116	-0.827277	-0.353076	177.884700	90.000000	0.000000	-13.155390	89.030890	-73.425280	-89.934630	-7.286582	89.996690	5.109055	-1.122507	0.499033	183.183800	-90.000000	0.000000
	15.5625	93.0782	0.4720	-2.143824	3.743991	1.245097	-89.999990	-90.000000	0.000000	0.183619	-0.061798	-0.387524	0.614805	-0.198123	-1.288327	0.000000	0.000000	0.000000	0.000000	0.000000	0.000000	89.999750	-0.005306	-89.928460	13.392110	-18.486850	45.064500	10.079080	60.215850	-11.866090	0.000000	0.000000	0.000000	-89.998700	0.029132	-89.608420	-14.747140	3.697390	36.363180	-10.663800	-61.540840	-12.376940	0.000000	0.000000	0.000000	-87.812320	88.608200	4.052518	89.969430	3.407615	89.997440	-5.422198	-0.855969	-0.365311	177.884000	90.000000	0.000000	-16.630790	88.977880	-70.158890	-89.933440	-7.418575	89.996710	5.197370	-1.112272	0.507696	183.159500	-90.000000	0.000000
	15.4851	93.0690	0.3433	-1.993028	3.550104	1.047879	-89.999990	-90.000000	0.000000	0.165297	-0.140349	-0.412522	0.548807	-0.467202	-1.373384	0.000000	0.000000	0.000000	0.000000	0.000000	0.000000	89.999230	-0.016860	-89.773130	13.856480	-14.980410	48.785890	8.196104	55.062250	-10.273910	0.000000	0.000000	0.000000	-89.998230	0.040995	-89.448930	-17.560130	-1.834468	40.713400	-9.057336	-57.605670	-10.990880	0.000000	0.000000	0.000000	-86.111850	88.417210	1.956664	89.967010	3.678715	89.997310	-5.415733	-0.586108	-0.235938	177.858800	90.000000	0.000000	-25.700330	88.868740	-61.434980	-89.930920	-7.699273	89.996750	5.402716	-0.978990	0.457822	183.090200	-90.000000	0.000000
	15.3883	93.0609	0.1922	-1.855147	3.453016	0.786242	-89.999990	-90.000000	0.000000	0.144427	-0.233234	-0.447667	0.474393	-0.781380	-1.491581	0.000000	0.000000	0.000000	0.000000	0.000000	0.000000	89.998510	-0.034123	-89.541090	14.166240	-11.422550	52.525990	6.965684	50.757480	-9.291711	0.000000	0.000000	0.000000	-89.997670	0.056460	-89.241070	-18.586940	-6.240740	45.187610	-7.810956	-53.806810	-9.960589	0.000000	0.000000	0.000000	-84.270900	88.136100	-0.270017	89.964650	3.941023	89.997200	-5.378004	-0.323574	-0.109481	177.814800	90.000000	0.000000	-36.480900	88.678470	-50.999840	-89.928580	-7.958541	89.996810	5.677940	-1.014366	0.492823	182.864400	-90.000000	0.000000
	15.3061	93.0563	0.0475	-1.741009	3.456217	0.545093	-89.999990	-90.000000	0.000000	0.119194	-0.333101	-0.487324	0.386046	-1.114528	-1.624126	0.000000	0.000000	0.000000	0.000000	0.000000	0.000000	89.997610	-0.058366	-89.215250	14.617990	-8.336974	56.183060	6.291569	47.997250	-8.779897	0.000000	0.000000	0.000000	-89.997140	0.072605	-89.024130	-19.185000	-9.465207	49.517530	-7.179992	-51.571460	-9.458651	0.000000	0.000000	0.000000	-83.368340	87.875670	-1.576122	89.961540	4.288260	89.997070	-5.313635	-0.333907	-0.114520	177.712200	90.000000	0.000000	-44.193810	88.456150	-43.602830	-89.926560	-8.183195	89.996860	5.939164	-1.213860	0.607268	182.546300	-90.000000	0.000000
	15.2672	93.0584	-0.0465	-1.657629	3.394244	0.383180	-89.999990	-90.000000	0.000000	0.086741	-0.428347	-0.520598	0.273758	-1.431063	-1.735039	0.000000	0.000000	0.000000	0.000000	0.000000	0.000000	89.996670	-0.089497	-88.796960	14.935160	-5.523683	59.445370	5.934371	46.401630	-8.517787	0.000000	0.000000	0.000000	-89.996770	0.084937	-88.858400	-20.042480	-11.681350	53.518480	-7.221320	-51.725120	-9.491059	0.000000	0.000000	0.000000	-82.406150	87.749050	-2.877367	89.958680	4.606839	89.996960	-5.306761	-0.432738	-0.165330	177.701600	90.000000	0.000000	-46.996850	88.318460	-41.012440	-89.925270	-8.325877	89.996900	6.163588	-1.150562	0.582122	182.133000	-90.000000	0.000000
